<svg width="20" height="23" viewBox="0 0 20 23" fill="none" xmlns="http://www.w3.org/2000/svg">
<path d="M16.037 12.0337C16.037 12.1347 15.8854 15.1161 19.17 16.6826C18.5636 18.5523 16.4413 22.6959 13.9652 22.6959C12.5503 22.6959 11.7418 21.7863 10.1248 21.7863C8.45727 21.7863 7.5477 22.6959 6.2844 22.6959C3.85887 22.797 1.5344 18.2491 0.877491 16.3794C0.372172 14.9645 0.170044 13.6002 0.170044 12.2863C0.170044 7.789 3.15142 5.61613 5.98121 5.5656C7.34557 5.5656 9.06366 6.5257 9.82164 6.5257C10.529 6.5257 12.4998 5.36347 14.3189 5.51506C16.1886 5.66666 17.6035 6.37411 18.5636 7.73847C16.8961 8.79964 16.037 10.164 16.037 12.0337ZM13.2072 3.74645C12.1966 4.90868 10.9838 5.5656 9.67004 5.46453C9.56898 4.10017 10.0743 2.83687 10.9838 1.82623C11.7923 0.916659 13.2072 0.15868 14.42 0.0576172C14.42 0.613469 14.5716 2.12943 13.2072 3.74645Z" fill="white"/>
</svg>
