<svg width="50" height="51" viewBox="0 0 50 51" fill="none" xmlns="http://www.w3.org/2000/svg">
<rect y="0.639648" width="50" height="50" rx="25" fill="#222121"/>
<g clip-path="url(#clip0_1_550)">
<path d="M24.4153 19.443L24.4146 19.4437L19.8972 23.9611C19.5459 24.3155 19.5484 24.8875 19.9028 25.2388C19.9309 25.2666 19.9606 25.2925 19.992 25.3163C20.3698 25.5696 20.8751 25.5143 21.1892 25.1853L23.6918 22.6917C23.8245 22.5591 23.9358 22.4067 24.0216 22.24L24.1661 21.9644L24.1662 30.8411C24.147 31.2957 24.4579 31.698 24.9025 31.7943C25.395 31.8742 25.8591 31.5397 25.939 31.0471C25.9473 30.9954 25.9512 30.9431 25.9505 30.8908V21.9825L26.0409 22.1767C26.1294 22.3663 26.2501 22.539 26.3978 22.6872L28.8959 25.1853C29.21 25.5143 29.7152 25.5696 30.093 25.3163C30.4956 25.0215 30.583 24.4562 30.2882 24.0536C30.2644 24.0211 30.2384 23.9902 30.2105 23.9611L25.693 19.4437C25.3404 19.0907 24.7684 19.0904 24.4153 19.443Z" fill="white"/>
</g>
<defs>
<clipPath id="clip0_1_550">
<rect width="11" height="13" fill="white" transform="translate(19.5 19.1396)"/>
</clipPath>
</defs>
</svg>
