<svg width="14" height="14" viewBox="0 0 14 14" fill="none" xmlns="http://www.w3.org/2000/svg">
<path d="M7.0001 3.8457C8.8458 3.8457 10.3692 5.36914 10.3692 7.21484C10.3692 9.08984 8.8458 10.584 7.0001 10.584C5.1251 10.584 3.63096 9.08984 3.63096 7.21484C3.63096 5.36914 5.1251 3.8457 7.0001 3.8457ZM7.0001 9.41211C8.20127 9.41211 9.16806 8.44531 9.16806 7.21484C9.16806 6.01367 8.20127 5.04688 7.0001 5.04688C5.76963 5.04688 4.80283 6.01367 4.80283 7.21484C4.80283 8.44531 5.79892 9.41211 7.0001 9.41211ZM11.2774 3.72852C11.2774 4.16797 10.9259 4.51953 10.4864 4.51953C10.047 4.51953 9.69541 4.16797 9.69541 3.72852C9.69541 3.28906 10.047 2.9375 10.4864 2.9375C10.9259 2.9375 11.2774 3.28906 11.2774 3.72852ZM13.504 4.51953C13.5626 5.60352 13.5626 8.85547 13.504 9.93945C13.4454 10.9941 13.211 11.9023 12.4493 12.6934C11.6876 13.4551 10.7501 13.6895 9.69541 13.748C8.61142 13.8066 5.35947 13.8066 4.27549 13.748C3.2208 13.6895 2.3126 13.4551 1.52158 12.6934C0.759861 11.9023 0.525486 10.9941 0.466893 9.93945C0.408299 8.85547 0.408299 5.60352 0.466893 4.51953C0.525486 3.46484 0.759861 2.52734 1.52158 1.76562C2.3126 1.00391 3.2208 0.769531 4.27549 0.710938C5.35947 0.652344 8.61142 0.652344 9.69541 0.710938C10.7501 0.769531 11.6876 1.00391 12.4493 1.76562C13.211 2.52734 13.4454 3.46484 13.504 4.51953ZM12.0978 11.082C12.4493 10.2324 12.3614 8.18164 12.3614 7.21484C12.3614 6.27734 12.4493 4.22656 12.0978 3.34766C11.8634 2.79102 11.4239 2.32227 10.8673 2.11719C9.98838 1.76562 7.9376 1.85352 7.0001 1.85352C6.0333 1.85352 3.98252 1.76562 3.13291 2.11719C2.54697 2.35156 2.10752 2.79102 1.87314 3.34766C1.52158 4.22656 1.60947 6.27734 1.60947 7.21484C1.60947 8.18164 1.52158 10.2324 1.87314 11.082C2.10752 11.668 2.54697 12.1074 3.13291 12.3418C3.98252 12.6934 6.0333 12.6055 7.0001 12.6055C7.9376 12.6055 9.98838 12.6934 10.8673 12.3418C11.4239 12.1074 11.8927 11.668 12.0978 11.082Z" fill="white"/>
<a href="https://www.figma.com/design/96OCUKjLETIyQBv7VSxRip?node-id=2-2544">
<rect fill="black" fill-opacity="0" x="-0.282375" y="-1.125" width="13.125" height="17.25"/>
</a>
</svg>
