<svg width="14" height="14" viewBox="0 0 14 14" fill="none" xmlns="http://www.w3.org/2000/svg">
<path d="M3.54794 13.8398H0.823332V5.08008H3.54794V13.8398ZM2.17099 3.9082C1.32138 3.9082 0.618254 3.17578 0.618254 2.29688C0.618254 1.44727 1.32138 0.744141 2.17099 0.744141C3.04989 0.744141 3.75302 1.44727 3.75302 2.29688C3.75302 3.17578 3.04989 3.9082 2.17099 3.9082ZM13.714 13.8398H11.0186V9.5918C11.0186 8.56641 10.9893 7.27734 9.5831 7.27734C8.17685 7.27734 7.97177 8.36133 7.97177 9.50391V13.8398H5.24716V5.08008H7.85458V6.28125H7.88388C8.26474 5.60742 9.14364 4.875 10.462 4.875C13.2159 4.875 13.7433 6.69141 13.7433 9.03516V13.8398H13.714Z" fill="white"/>
<a href="https://www.figma.com/design/96OCUKjLETIyQBv7VSxRip?node-id=2-2544">
<rect fill="black" fill-opacity="0" x="0.178312" y="-1.125" width="13.125" height="17.25"/>
</a>
</svg>
