<svg width="39" height="39" viewBox="0 0 39 39" fill="none" xmlns="http://www.w3.org/2000/svg">
<path d="M9.67883 38.55C6.64234 38.55 4.27007 37.5024 2.56204 35.4072C0.854015 33.2168 0 29.9786 0 25.6929C0 21.2167 0.99635 16.931 2.98905 12.8357C5.07664 8.74053 8.01825 4.69291 11.8139 0.692913C11.9088 0.59767 12.0511 0.550049 12.2409 0.550049C12.5255 0.550049 12.7153 0.692907 12.8102 0.978623C13 1.1691 13.0474 1.40719 12.9526 1.69291C10.6752 4.74053 9.10949 7.69291 8.25548 10.55C7.49635 13.3119 7.11679 16.4071 7.11679 19.8357C7.11679 22.4071 7.44891 24.4071 8.11314 25.8357C8.77737 27.2643 9.67883 28.55 10.8175 29.6929L5.40876 30.6929C5.31387 29.0738 5.74088 27.8357 6.68978 26.9786C7.73358 26.1214 9.06205 25.6929 10.6752 25.6929C12.6679 25.6929 14.1861 26.2643 15.2299 27.4071C16.3686 28.55 16.938 30.1214 16.938 32.1214C16.938 34.2167 16.2737 35.8358 14.9453 36.9786C13.7117 38.0262 11.9562 38.55 9.67883 38.55ZM31.5985 38.55C28.562 38.55 26.1898 37.5024 24.4818 35.4072C22.8686 33.2168 22.062 29.9786 22.062 25.6929C22.062 21.1214 23.0584 16.7881 25.0511 12.6929C27.0438 8.59767 29.9854 4.59767 33.8759 0.692913C33.9708 0.59767 34.1131 0.550049 34.3029 0.550049C34.5876 0.550049 34.7774 0.692907 34.8723 0.978623C35.062 1.1691 35.1095 1.40719 35.0146 1.69291C32.7372 4.74053 31.1715 7.69291 30.3175 10.55C29.5584 13.3119 29.1788 16.4071 29.1788 19.8357C29.1788 22.4071 29.4635 24.4548 30.0328 25.9786C30.6971 27.4071 31.5985 28.6452 32.7372 29.6929L27.4708 30.6929C27.3759 29.0738 27.8029 27.8357 28.7518 26.9786C29.7007 26.1214 31.0292 25.6929 32.7372 25.6929C34.7299 25.6929 36.2482 26.2643 37.292 27.4071C38.4307 28.55 39 30.1214 39 32.1214C39 34.2167 38.3358 35.8358 37.0073 36.9786C35.7737 38.0262 33.9708 38.55 31.5985 38.55Z" fill="#E7C873"/>
</svg>
