<svg width="16" height="13" viewBox="0 0 16 13" fill="none" xmlns="http://www.w3.org/2000/svg">
<path d="M13.7632 3.16797C13.7632 3.31445 13.7632 3.43164 13.7632 3.57812C13.7632 7.65039 10.687 12.3086 5.03273 12.3086C3.27492 12.3086 1.66359 11.8105 0.315937 10.9316C0.550312 10.9609 0.784687 10.9902 1.04836 10.9902C2.48391 10.9902 3.80226 10.4922 4.85695 9.67188C3.5093 9.64258 2.36672 8.76367 1.98586 7.5332C2.19094 7.5625 2.36672 7.5918 2.5718 7.5918C2.83547 7.5918 3.12844 7.5332 3.36281 7.47461C1.95656 7.18164 0.901874 5.95117 0.901874 4.45703V4.42773C1.31203 4.66211 1.81008 4.7793 2.30812 4.80859C1.45851 4.25195 0.931171 3.31445 0.931171 2.25977C0.931171 1.67383 1.07766 1.14648 1.34133 0.707031C2.86476 2.55273 5.14992 3.7832 7.69875 3.92969C7.64016 3.69531 7.61086 3.46094 7.61086 3.22656C7.61086 1.52734 8.98781 0.150391 10.687 0.150391C11.5659 0.150391 12.357 0.501953 12.9429 1.11719C13.6167 0.970703 14.2905 0.707031 14.8765 0.355469C14.6421 1.08789 14.1734 1.67383 13.5288 2.05469C14.1441 1.99609 14.7593 1.82031 15.2866 1.58594C14.8765 2.20117 14.3491 2.72852 13.7632 3.16797Z" fill="white"/>
<a href="https://www.figma.com/design/96OCUKjLETIyQBv7VSxRip?node-id=2-2544">
<rect fill="black" fill-opacity="0" x="-0.744" y="-1.125" width="15" height="17.25"/>
</a>
</svg>
